<?xml version="1.0" encoding="UTF-8"?>
<svg version="1.1" xmlns="http://www.w3.org/2000/svg" width="64" height="64">
<path d="M0 0 C8.04071716 5.46768767 14.35713546 11.78672485 16.953125 21.328125 C17.97008074 32.73931439 17.08780568 41.52074309 9.640625 50.578125 C3.75028057 56.89640044 -1.9995096 60.87830798 -10.81640625 61.6640625 C-22.23808647 61.92046185 -29.76998744 60.10045244 -38.2578125 52.1875 C-45.41707366 44.7468705 -47.46537447 37.63799487 -47.41040039 27.37304688 C-47.154444 17.46241552 -43.06295379 11.07888989 -36.046875 4.328125 C-26.55128048 -3.80505814 -11.27874483 -6.1129075 0 0 Z M-27.046875 16.328125 C-27.046875 17.648125 -27.046875 18.968125 -27.046875 20.328125 C-26.03050523 21.56733711 -26.03050523 21.56733711 -23.91381836 21.44165039 C-22.53915405 21.43379517 -22.53915405 21.43379517 -21.13671875 21.42578125 C-19.65268555 21.42094727 -19.65268555 21.42094727 -18.13867188 21.41601562 C-16.57729492 21.40344727 -16.57729492 21.40344727 -14.984375 21.390625 C-13.93958984 21.38611328 -12.89480469 21.38160156 -11.81835938 21.37695312 C-9.2278084 21.36512413 -6.63736941 21.34864189 -4.046875 21.328125 C-3.386875 20.008125 -2.726875 18.688125 -2.046875 17.328125 C-3.08480272 16.06631405 -3.08480272 16.06631405 -5.36352539 16.21459961 C-6.86387329 16.22245483 -6.86387329 16.22245483 -8.39453125 16.23046875 C-9.47412109 16.23369141 -10.55371094 16.23691406 -11.66601562 16.24023438 C-13.37047852 16.25280273 -13.37047852 16.25280273 -15.109375 16.265625 C-16.24955078 16.27013672 -17.38972656 16.27464844 -18.56445312 16.27929688 C-21.39197851 16.29112753 -24.2194014 16.3076109 -27.046875 16.328125 Z M-27.046875 27.328125 C-27.046875 28.648125 -27.046875 29.968125 -27.046875 31.328125 C-19.126875 31.328125 -11.206875 31.328125 -3.046875 31.328125 C-3.046875 30.008125 -3.046875 28.688125 -3.046875 27.328125 C-10.966875 27.328125 -18.886875 27.328125 -27.046875 27.328125 Z M-26.046875 37.328125 C-26.706875 38.648125 -27.366875 39.968125 -28.046875 41.328125 C-27.00894728 42.58993595 -27.00894728 42.58993595 -24.73022461 42.44165039 C-23.22987671 42.43379517 -23.22987671 42.43379517 -21.69921875 42.42578125 C-20.61962891 42.42255859 -19.54003906 42.41933594 -18.42773438 42.41601562 C-17.29142578 42.40763672 -16.15511719 42.39925781 -14.984375 42.390625 C-13.27411133 42.38385742 -13.27411133 42.38385742 -11.52929688 42.37695312 C-8.70177149 42.36512247 -5.8743486 42.3486391 -3.046875 42.328125 C-3.046875 41.008125 -3.046875 39.688125 -3.046875 38.328125 C-4.06324477 37.08891289 -4.06324477 37.08891289 -6.17993164 37.21459961 C-7.55459595 37.22245483 -7.55459595 37.22245483 -8.95703125 37.23046875 C-10.44106445 37.23530273 -10.44106445 37.23530273 -11.95507812 37.24023438 C-13.51645508 37.25280273 -13.51645508 37.25280273 -15.109375 37.265625 C-16.67655273 37.27239258 -16.67655273 37.27239258 -18.27539062 37.27929688 C-20.8659416 37.29112587 -23.45638059 37.30760811 -26.046875 37.328125 Z " fill="#20BF6A" transform="translate(47.046875,2.671875)"/>
</svg>
